<svg width="47" height="24" viewBox="0 0 47 24" fill="none" xmlns="http://www.w3.org/2000/svg">
<rect x="0.798584" width="45.5997" height="23.9998" rx="4" fill="white"/>
<path d="M29.3873 7.41717L29.9633 5.85118H32.5985V3H14.5986V20.9999H32.5985V18.1559H30.1145L29.1965 17.0831L28.2425 18.1559H21.1866V12.4391H18.8574L21.7698 5.85118H24.603L25.287 7.34517V5.85118H28.8041L29.3909 7.41717H29.3873ZM27.4001 8.45396L27.3929 7.82396L27.6341 8.45396L28.8041 11.5787H29.9669L31.1441 8.45396L31.3709 7.83116V11.5823H32.5949V6.77997H30.5609L29.6357 9.21715L29.3909 9.87595L29.1389 9.21715L28.2101 6.77997H26.1761V11.5787H27.4001V8.45396ZM24.765 11.5787H26.1761L24.063 6.77997H22.425L20.301 11.5787H21.6942L22.065 10.6535H24.3942L24.765 11.5787ZM22.9902 8.40356L23.2314 7.80236L23.4726 8.40356L23.9694 9.61675H22.4934L22.9902 8.40356ZM22.1694 12.4427V17.2235H26.1761V16.1867H23.3934V15.3515H26.1221V14.3183H23.3934V13.4795H26.1761V12.4427H22.1694ZM30.6365 17.2235H32.2277L29.9849 14.8223L32.2277 12.4391H30.6617L29.2145 13.9943L27.7745 12.4391H26.1797L28.4189 14.8403L26.1797 17.2235H27.7277L29.1857 15.6647L30.6365 17.2235ZM31.2413 14.8187L32.5985 16.1975V13.4543L31.2413 14.8151V14.8187Z" fill="#006FCF"/>
</svg>
