<svg width="155" height="46" viewBox="0 0 155 46" fill="none" xmlns="http://www.w3.org/2000/svg">
<path d="M148.319 0.573647H5.80027C2.91373 0.573647 0.57373 2.91365 0.57373 5.80019V39.5673C0.57373 42.4539 2.91373 44.7939 5.80027 44.7939H148.319C151.206 44.7939 153.546 42.4539 153.546 39.5673V5.80019C153.546 2.91365 151.206 0.573647 148.319 0.573647Z" fill="#3F3D56"/>
<path d="M148.319 45.3604H5.80018C2.59911 45.3604 0 42.7613 0 39.5602V5.80018C0 2.59911 2.59911 0 5.80018 0H148.319C151.52 0 154.119 2.59911 154.119 5.80018V39.5602C154.119 42.7613 151.52 45.3604 148.319 45.3604ZM5.80018 1.14729C3.22941 1.14729 1.14729 3.22941 1.14729 5.80018V39.5602C1.14729 42.1239 3.23649 44.2131 5.80018 44.2131H148.319C150.883 44.2131 152.972 42.1239 152.972 39.5602V5.80018C152.972 3.22941 150.883 1.14729 148.319 1.14729H5.80018V1.14729Z" fill="#A7A9AC"/>
<path d="M51.3094 12.8964L50.6649 15.0068H49.2627L51.6493 7.55653H53.3844L55.8065 15.0068H54.3476L53.6748 12.8964H51.3094ZM53.4411 11.8695L52.8533 10.0352C52.7116 9.58199 52.5913 9.07208 52.4779 8.64008H52.4567C52.3434 9.07208 52.2372 9.58907 52.1026 10.0352L51.5289 11.8695H53.4411Z" fill="white"/>
<path d="M57.839 9.62448L58.7101 12.3581C58.8659 12.8326 58.9722 13.2646 59.0784 13.7037H59.1138C59.2129 13.2646 59.3333 12.8397 59.4821 12.3581L60.3461 9.62448H61.7696L59.7158 15.0068H58.3773L56.373 9.62448H57.8461H57.839Z" fill="white"/>
<path d="M67.1873 13.7179C67.1873 14.2066 67.2085 14.6811 67.2723 15.0139H66.0471L65.9479 14.419H65.9125C65.5938 14.8369 65.0273 15.1343 64.3191 15.1343C63.2355 15.1343 62.6265 14.3482 62.6265 13.5338C62.6265 12.1882 63.8304 11.4871 65.8205 11.5012V11.4162C65.8205 11.0621 65.6788 10.4743 64.7227 10.4743C64.1916 10.4743 63.6392 10.6372 63.278 10.8709L63.016 9.98567C63.4126 9.74488 64.1137 9.51117 64.9635 9.51117C66.6916 9.51117 67.1873 10.6089 67.1873 11.7916V13.725V13.7179ZM65.863 12.3794C64.8998 12.3652 63.9862 12.5706 63.9862 13.385C63.9862 13.9162 64.3262 14.157 64.7582 14.157C65.3106 14.157 65.7001 13.8029 65.8275 13.4134C65.863 13.3142 65.863 13.2151 65.863 13.1159V12.3723V12.3794Z" fill="white"/>
<path d="M69.7863 8.85254C69.3331 8.85254 69.0356 8.51969 69.0356 8.12309C69.0356 7.70525 69.3472 7.37948 69.8005 7.37948C70.2538 7.37948 70.5512 7.69817 70.5654 8.12309C70.5654 8.51969 70.2679 8.85254 69.8005 8.85254H69.7863ZM69.1135 15.0068V9.62448H70.4733V15.0068H69.1135Z" fill="white"/>
<path d="M72.428 7.15285H73.7877V15.0139H72.428V7.15285Z" fill="white"/>
<path d="M79.9351 13.7179C79.9351 14.2066 79.9563 14.6811 80.0201 15.0139H78.7949L78.6957 14.419H78.6603C78.3416 14.8369 77.7751 15.1343 77.0669 15.1343C75.9833 15.1343 75.3743 14.3482 75.3743 13.5338C75.3743 12.1882 76.5782 11.4871 78.5683 11.5012V11.4162C78.5683 11.0621 78.4266 10.4743 77.4776 10.4743C76.9465 10.4743 76.3941 10.6372 76.0329 10.8709L75.7709 9.98567C76.1675 9.74488 76.8686 9.51117 77.7184 9.51117C79.4394 9.51117 79.9422 10.6089 79.9422 11.7916V13.725L79.9351 13.7179ZM78.6108 12.3794C77.6476 12.3652 76.734 12.5706 76.734 13.385C76.734 13.9162 77.074 14.157 77.506 14.157C78.0584 14.157 78.4479 13.8029 78.5753 13.4134C78.6108 13.3142 78.6108 13.2151 78.6108 13.1159V12.3723V12.3794Z" fill="white"/>
<path d="M81.8543 7.15285H83.214V10.3681H83.2353C83.5681 9.85111 84.1559 9.50409 84.9633 9.50409C86.2805 9.50409 87.2154 10.6018 87.2083 12.2378C87.2083 14.1712 85.9831 15.1343 84.765 15.1343C84.0709 15.1343 83.4477 14.8652 83.0653 14.2066H83.044L82.9803 15.0139H81.8188C81.8401 14.6456 81.8613 14.0508 81.8613 13.5125V7.15285H81.8543ZM83.214 12.7902C83.214 12.9035 83.2282 13.0097 83.2494 13.1088C83.3911 13.6612 83.8656 14.0578 84.4534 14.0578C85.3032 14.0578 85.8273 13.385 85.8273 12.2873C85.8273 11.3383 85.374 10.5664 84.4675 10.5664C83.9151 10.5664 83.4052 10.963 83.2636 11.5579C83.2423 11.657 83.2211 11.7774 83.2211 11.912V12.7831L83.214 12.7902Z" fill="white"/>
<path d="M88.8088 7.15285H90.1686V15.0139H88.8088V7.15285Z" fill="white"/>
<path d="M93.0934 12.6981C93.1288 13.6683 93.8866 14.0932 94.7506 14.0932C95.3809 14.0932 95.82 13.9941 96.2449 13.8525L96.4432 14.7802C95.9758 14.9785 95.3384 15.1201 94.5664 15.1201C92.8172 15.1201 91.7903 14.0508 91.7903 12.4006C91.7903 10.9063 92.6968 9.50409 94.4248 9.50409C96.1528 9.50409 96.7477 10.9417 96.7477 12.1244C96.7477 12.3794 96.7265 12.5777 96.7052 12.6981H93.1005H93.0934ZM95.4588 11.7491C95.4729 11.2534 95.2463 10.4318 94.3398 10.4318C93.4971 10.4318 93.1429 11.1967 93.0934 11.7491H95.4588Z" fill="white"/>
<path d="M103.454 15.1343C101.939 15.1343 100.756 14.0932 100.756 12.3581C100.756 10.6231 101.918 9.50409 103.539 9.50409C105.161 9.50409 106.216 10.6301 106.216 12.2661C106.216 14.242 104.821 15.1272 103.461 15.1272H103.447L103.454 15.1343ZM103.497 14.1499C104.269 14.1499 104.814 13.3992 104.814 12.3015C104.814 11.4587 104.439 10.4885 103.511 10.4885C102.583 10.4885 102.158 11.4304 102.158 12.3227C102.158 13.3638 102.675 14.1499 103.483 14.1499H103.497Z" fill="white"/>
<path d="M107.817 11.2321C107.817 10.616 107.796 10.0919 107.774 9.63156H108.957L109.021 10.4389H109.056C109.297 10.0211 109.885 9.51117 110.784 9.51117C111.684 9.51117 112.696 10.1202 112.696 11.8199V15.0139H111.337V11.9757C111.337 11.2038 111.046 10.616 110.31 10.616C109.772 10.616 109.396 11.0055 109.247 11.4092C109.205 11.5225 109.184 11.6854 109.184 11.8412V15.0139H107.824V11.2321H107.817Z" fill="white"/>
<path d="M118.957 8.24349V9.62448H120.253V10.6443H118.957V13.0097C118.957 13.6754 119.134 14.0012 119.651 14.0012C119.892 14.0012 120.026 13.987 120.182 13.9445L120.203 14.9714C120.005 15.0493 119.637 15.1131 119.219 15.1131C118.709 15.1131 118.305 14.9502 118.05 14.674C117.753 14.3624 117.618 13.8666 117.618 13.1584V10.6372H116.854V9.6174H117.618V8.61175L118.957 8.2364V8.24349Z" fill="white"/>
<path d="M121.761 7.15285H123.121V10.361H123.142C123.305 10.1061 123.539 9.8936 123.815 9.75196C124.091 9.59616 124.41 9.51117 124.757 9.51117C125.671 9.51117 126.634 10.1202 126.634 11.8412V15.0139H125.274V11.9828C125.274 11.2109 124.984 10.6089 124.233 10.6089C123.702 10.6089 123.327 10.963 123.171 11.3737C123.128 11.4941 123.114 11.6429 123.114 11.7845V15.0139H121.754V7.15285H121.761Z" fill="white"/>
<path d="M129.53 12.6981C129.566 13.6683 130.324 14.0932 131.188 14.0932C131.818 14.0932 132.257 13.9941 132.682 13.8525L132.88 14.7802C132.413 14.9785 131.775 15.1201 131.003 15.1201C129.254 15.1201 128.227 14.0508 128.227 12.4006C128.227 10.9063 129.134 9.50409 130.862 9.50409C132.59 9.50409 133.185 10.9417 133.185 12.1244C133.185 12.3794 133.163 12.5777 133.142 12.6981H129.537H129.53ZM131.896 11.7491C131.91 11.2534 131.683 10.4318 130.777 10.4318C129.934 10.4318 129.58 11.1967 129.53 11.7491H131.896Z" fill="white"/>
<path d="M34.3975 22.2376C34.3621 18.5478 37.4145 16.7561 37.5561 16.6711C35.8281 14.1499 33.144 13.8029 32.2021 13.7746C29.95 13.5409 27.7687 15.1201 26.6214 15.1201C25.4742 15.1201 23.6824 13.7958 21.7844 13.8312C19.334 13.8737 17.0465 15.2901 15.7859 17.4855C13.1939 21.9756 15.1273 28.5689 17.6131 32.202C18.8595 33.9796 20.3114 35.9626 22.2093 35.8917C24.0648 35.8138 24.7589 34.709 27.0039 34.709C29.2489 34.709 29.8792 35.8917 31.8197 35.8493C33.8168 35.8138 35.0703 34.0646 36.2672 32.2728C37.7048 30.2332 38.2785 28.229 38.3068 28.1298C38.2572 28.1157 34.4329 26.6568 34.3904 22.2305" fill="white"/>
<path d="M30.7289 11.395C31.7275 10.1415 32.4144 8.44178 32.2232 6.71377C30.7785 6.77751 28.9655 7.71233 27.9244 8.93753C27.0037 10.014 26.1751 11.7845 26.3876 13.4417C28.0165 13.5621 29.6808 12.6202 30.7289 11.3879" fill="white"/>
<path d="M61.2667 35.6085H58.6747L57.2583 31.1468H52.3292L50.9765 35.6085H48.4553L53.3419 20.4246H56.3589L61.2667 35.6085ZM56.8334 29.2771L55.5515 25.3112C55.417 24.9075 55.162 23.9514 54.7867 22.45H54.7442C54.5954 23.0945 54.3547 24.0506 54.0218 25.3112L52.7612 29.2771H56.8405H56.8334Z" fill="white"/>
<path d="M73.8374 29.9995C73.8374 31.8621 73.3346 33.3351 72.3289 34.4116C71.4295 35.3748 70.3105 35.8492 68.972 35.8492C67.5273 35.8492 66.4933 35.3323 65.863 34.2983H65.8205V40.0631H63.3843V28.2573C63.3843 27.0888 63.356 25.8848 63.2922 24.6526H65.431L65.5656 26.3877H65.6151C66.4225 25.0775 67.6548 24.4259 69.3049 24.4259C70.5938 24.4259 71.6774 24.9358 72.5343 25.9556C73.3983 26.9755 73.8303 28.321 73.8303 29.9853M71.3516 30.0774C71.3516 29.0151 71.1108 28.1298 70.6292 27.4429C70.1052 26.7205 69.3969 26.3593 68.5117 26.3593C67.9097 26.3593 67.3644 26.5576 66.8757 26.9542C66.3871 27.3579 66.0684 27.8749 65.9197 28.5193C65.8418 28.8239 65.8064 29.0647 65.8064 29.263V31.0901C65.8064 31.8833 66.0471 32.5561 66.5358 33.1014C67.0245 33.6538 67.6618 33.9229 68.4409 33.9229C69.3545 33.9229 70.0697 33.5759 70.5796 32.8677C71.0896 32.1595 71.3445 31.2318 71.3445 30.0703" fill="white"/>
<path d="M86.4292 29.9995C86.4292 31.8621 85.9264 33.3351 84.9207 34.4116C84.0213 35.3748 82.9023 35.8492 81.5638 35.8492C80.1262 35.8492 79.0851 35.3323 78.4548 34.2983H78.4123V40.0631H75.9832V28.2573C75.9832 27.0888 75.9549 25.8848 75.8911 24.6526H78.0299L78.1644 26.3877H78.214C79.0214 25.0775 80.2536 24.4259 81.9038 24.4259C83.1927 24.4259 84.2692 24.9358 85.1332 25.9556C85.9972 26.9755 86.4292 28.321 86.4292 29.9853M83.9505 30.0774C83.9505 29.0151 83.7097 28.1298 83.2281 27.4429C82.704 26.7205 81.9958 26.3593 81.1106 26.3593C80.5086 26.3593 79.9633 26.5576 79.4746 26.9542C78.986 27.3579 78.6673 27.8749 78.5185 28.5193C78.4406 28.8239 78.4052 29.0647 78.4052 29.263V31.0901C78.4052 31.8833 78.646 32.5561 79.1347 33.1014C79.6233 33.6538 80.2536 33.9229 81.0397 33.9229C81.9533 33.9229 82.6686 33.5759 83.1785 32.8677C83.6884 32.1595 83.9434 31.2318 83.9434 30.0703" fill="white"/>
<path d="M100.508 31.3522C100.508 32.6411 100.062 33.6963 99.1555 34.5037C98.1641 35.3889 96.7901 35.8351 95.0196 35.8351C93.3837 35.8351 92.0735 35.5235 91.082 34.8932L91.6486 32.8677C92.718 33.5122 93.8865 33.838 95.1684 33.838C96.0819 33.838 96.7972 33.6326 97.3071 33.2218C97.817 32.804 98.072 32.2516 98.072 31.5646C98.072 30.9485 97.8595 30.4315 97.4417 30.0066C97.0239 29.5816 96.3227 29.1921 95.3454 28.831C92.6897 27.8395 91.3582 26.3877 91.3582 24.4755C91.3582 23.2291 91.8256 22.2022 92.7534 21.409C93.6811 20.6087 94.9205 20.2121 96.4715 20.2121C97.8525 20.2121 98.9997 20.4529 99.9133 20.9345L99.3043 22.9175C98.4473 22.45 97.4771 22.2163 96.4006 22.2163C95.5437 22.2163 94.878 22.4288 94.3964 22.8466C93.9927 23.222 93.7874 23.6823 93.7874 24.2206C93.7874 24.8225 94.0211 25.3183 94.4814 25.7078C94.8851 26.069 95.6216 26.4585 96.691 26.8834C97.9941 27.4075 98.9573 28.0236 99.5734 28.7318C100.19 29.44 100.494 30.3182 100.494 31.3663" fill="white"/>
<path d="M108.546 26.4868H105.869V31.8054C105.869 33.1581 106.344 33.8309 107.293 33.8309C107.725 33.8309 108.086 33.7955 108.369 33.7176L108.433 35.566C107.958 35.743 107.321 35.8351 106.542 35.8351C105.579 35.8351 104.828 35.5447 104.29 34.9569C103.752 34.3691 103.476 33.3847 103.476 32.0037V26.4868H101.875V24.6596H103.476V22.6554L105.862 21.9331V24.6596H108.539V26.4868H108.546Z" fill="white"/>
<path d="M120.643 30.0491C120.643 31.7346 120.161 33.1156 119.205 34.192C118.199 35.3039 116.861 35.8563 115.197 35.8563C113.532 35.8563 112.307 35.3252 111.358 34.2558C110.402 33.1935 109.927 31.8479 109.927 30.2261C109.927 28.5264 110.416 27.1383 111.401 26.0619C112.385 24.9783 113.709 24.4401 115.374 24.4401C117.038 24.4401 118.27 24.9712 119.247 26.0406C120.182 27.0817 120.643 28.4131 120.643 30.0491ZM118.121 30.127C118.121 29.1213 117.902 28.2502 117.47 27.5279C116.96 26.6568 116.23 26.2177 115.289 26.2177C114.347 26.2177 113.568 26.6568 113.058 27.5279C112.619 28.2502 112.406 29.1284 112.406 30.1695C112.406 31.2105 112.619 32.0462 113.058 32.7686C113.582 33.6397 114.318 34.0787 115.267 34.0787C116.216 34.0787 116.925 33.6326 117.449 32.7473C117.902 32.0108 118.121 31.1397 118.121 30.127Z" fill="white"/>
<path d="M128.546 26.8055C128.305 26.763 128.05 26.7418 127.781 26.7418C126.924 26.7418 126.266 27.0675 125.798 27.712C125.395 28.2856 125.189 29.0009 125.189 29.872V35.6155H122.76L122.781 28.1157C122.781 26.8551 122.753 25.7078 122.689 24.6667H124.807L124.899 26.763H124.963C125.217 26.0406 125.628 25.4599 126.181 25.0279C126.719 24.6384 127.307 24.4401 127.937 24.4401C128.164 24.4401 128.362 24.4543 128.546 24.4826V26.8055Z" fill="white"/>
<path d="M139.424 29.6171C139.424 30.0561 139.396 30.4173 139.339 30.7219H132.045C132.073 31.8054 132.427 32.6269 133.1 33.2006C133.716 33.7105 134.509 33.9654 135.486 33.9654C136.563 33.9654 137.547 33.7955 138.44 33.4484L138.822 35.141C137.788 35.5943 136.563 35.8209 135.147 35.8209C133.454 35.8209 132.115 35.3181 131.152 34.3195C130.189 33.321 129.7 31.9825 129.7 30.2969C129.7 28.6114 130.154 27.2729 131.053 26.1752C131.995 25.0067 133.277 24.4188 134.877 24.4188C136.478 24.4188 137.654 25.0067 138.461 26.1752C139.105 27.11 139.424 28.2573 139.424 29.6241M137.108 28.9938C137.122 28.2715 136.967 27.6483 136.634 27.1242C136.216 26.4514 135.564 26.1115 134.693 26.1115C133.9 26.1115 133.256 26.4443 132.76 27.1029C132.356 27.627 132.115 28.2573 132.045 28.9938H137.108Z" fill="white"/>
</svg>
