<svg width="155" height="47" viewBox="0 0 155 47" fill="none" xmlns="http://www.w3.org/2000/svg">
<path d="M148.58 1.28183H6.06077C3.17423 1.28183 0.834229 3.62184 0.834229 6.50837V40.2755C0.834229 43.162 3.17423 45.502 6.06077 45.502H148.58C151.466 45.502 153.806 43.162 153.806 40.2755V6.50837C153.806 3.62184 151.466 1.28183 148.58 1.28183Z" fill="#3F3D56"/>
<path d="M148.58 46.0686H6.06068C2.8596 46.0686 0.260498 43.4695 0.260498 40.2684V6.50838C0.260498 3.3073 2.8596 0.708191 6.06068 0.708191H148.58C151.781 0.708191 154.38 3.3073 154.38 6.50838V40.2684C154.38 43.4695 151.781 46.0686 148.58 46.0686ZM6.06068 1.85548C3.49699 1.85548 1.40779 3.94468 1.40779 6.51546V40.2755C1.40779 42.8392 3.49699 44.9284 6.06068 44.9284H148.58C151.143 44.9284 153.232 42.8392 153.232 40.2755V6.51546C153.232 3.94468 151.143 1.85548 148.58 1.85548H6.06068Z" fill="#A7A9AC"/>
<path d="M78.0071 25.5166C75.33 25.5166 73.1417 27.5562 73.1417 30.3607C73.1417 33.1651 75.323 35.2048 78.0071 35.2048C80.6911 35.2048 82.8724 33.151 82.8724 30.3607C82.8724 27.5703 80.6911 25.5166 78.0071 25.5166ZM78.0071 33.2997C76.5411 33.2997 75.2734 32.0887 75.2734 30.3607C75.2734 28.6326 76.5411 27.4216 78.0071 27.4216C79.473 27.4216 80.7407 28.6114 80.7407 30.3607C80.7407 32.1099 79.473 33.2997 78.0071 33.2997ZM67.3982 25.5166C64.7212 25.5166 62.5328 27.5562 62.5328 30.3607C62.5328 33.1651 64.7141 35.2048 67.3982 35.2048C70.0823 35.2048 72.2635 33.151 72.2635 30.3607C72.2635 27.5703 70.0823 25.5166 67.3982 25.5166ZM67.3982 33.2997C65.9322 33.2997 64.6645 32.0887 64.6645 30.3607C64.6645 28.6326 65.9322 27.4216 67.3982 27.4216C68.8642 27.4216 70.1318 28.6114 70.1318 30.3607C70.1318 32.1099 68.8642 33.2997 67.3982 33.2997ZM54.778 27.0038V29.0576H59.6929C59.5442 30.2119 59.1618 31.0547 58.574 31.6425C57.8587 32.3578 56.7397 33.1439 54.778 33.1439C51.7469 33.1439 49.3815 30.7006 49.3815 27.6766C49.3815 24.6525 51.7469 22.2092 54.778 22.2092C56.4139 22.2092 57.6037 22.8537 58.4819 23.6752L59.9337 22.2234C58.7014 21.0478 57.0726 20.1484 54.778 20.1484C50.6279 20.1484 47.1436 23.5265 47.1436 27.6695C47.1436 31.8125 50.6279 35.1906 54.778 35.1906C57.0159 35.1906 58.7085 34.4541 60.0258 33.0802C61.3855 31.7204 61.8034 29.8153 61.8034 28.2715C61.8034 27.797 61.768 27.3508 61.6901 26.9896H54.7709L54.778 27.0038ZM106.385 28.5972C105.981 27.5137 104.749 25.5166 102.235 25.5166C99.7206 25.5166 97.6668 27.4783 97.6668 30.3607C97.6668 33.0731 99.7206 35.2048 102.475 35.2048C104.699 35.2048 105.981 33.845 106.512 33.0589L104.862 31.9612C104.31 32.7686 103.559 33.2997 102.475 33.2997C101.392 33.2997 100.62 32.804 100.124 31.8337L106.604 29.1567L106.385 28.6043V28.5972ZM99.7772 30.2119C99.7206 28.3423 101.229 27.3862 102.313 27.3862C103.155 27.3862 103.871 27.8111 104.111 28.4131L99.7843 30.2119H99.7772ZM94.5082 34.9073H96.6399V20.6654H94.5082V34.9073ZM91.0238 26.593H90.953C90.4785 26.0265 89.5579 25.5095 88.4035 25.5095C85.9814 25.5095 83.7577 27.6412 83.7577 30.3748C83.7577 33.1085 85.9814 35.1977 88.4035 35.1977C89.5579 35.1977 90.4785 34.6807 90.953 34.1H91.0238V34.794C91.0238 36.6495 90.0324 37.641 88.4389 37.641C87.1358 37.641 86.3284 36.7062 85.9956 35.913L84.1401 36.6849C84.6713 37.9668 86.0877 39.5461 88.4318 39.5461C90.9247 39.5461 93.0351 38.0801 93.0351 34.4966V25.7998H91.0167V26.5859L91.0238 26.593ZM88.5805 33.2926C87.1146 33.2926 85.8823 32.0604 85.8823 30.3748C85.8823 28.6893 87.1146 27.4216 88.5805 27.4216C90.0465 27.4216 91.1655 28.6681 91.1655 30.3748C91.1655 32.0816 90.0253 33.2926 88.5805 33.2926ZM116.349 20.6654H111.257V34.9073H113.382V29.5108H116.349C118.708 29.5108 121.023 27.804 121.023 25.0916C121.023 22.3792 118.708 20.6724 116.349 20.6724V20.6654ZM116.406 27.5279H113.382V22.6483H116.406C117.992 22.6483 118.899 23.9656 118.899 25.0916C118.899 26.2177 117.999 27.5349 116.406 27.5349V27.5279ZM129.543 25.4811C128.006 25.4811 126.413 26.161 125.754 27.6624L127.638 28.4485C128.042 27.6624 128.792 27.4075 129.578 27.4075C130.676 27.4075 131.795 28.0661 131.816 29.2417V29.3904C131.434 29.1709 130.605 28.838 129.6 28.838C127.567 28.838 125.499 29.957 125.499 32.0462C125.499 33.9513 127.163 35.1764 129.033 35.1764C130.464 35.1764 131.25 34.532 131.746 33.7813H131.816V34.879H133.87V29.4188C133.87 26.8905 131.986 25.4811 129.55 25.4811H129.543ZM129.288 33.2855C128.594 33.2855 127.624 32.9385 127.624 32.0745C127.624 30.9768 128.835 30.5519 129.876 30.5519C130.811 30.5519 131.25 30.7502 131.816 31.0264C131.653 32.3436 130.513 33.2785 129.288 33.2785V33.2855ZM141.342 25.7928L138.905 31.9683H138.835L136.306 25.7928H134.019L137.808 34.4187L135.648 39.2203H137.864L143.707 25.7928H141.342ZM122.199 34.9002H124.324V20.6583H122.199V34.9002Z" fill="white"/>
<path d="M12.2787 9.33411C11.9459 9.68113 11.7546 10.2264 11.7546 10.9346V36.1042C11.7546 36.8124 11.9529 37.3506 12.2787 37.7047L12.3637 37.7897L26.464 23.6894V23.3565L12.3637 9.2562L12.2787 9.34119V9.33411Z" fill="#5BC9F4"/>
<path d="M31.1666 28.3919L26.4641 23.6894V23.3565L31.1666 18.6541L31.2728 18.7178L36.8393 21.8835C38.4327 22.79 38.4327 24.263 36.8393 25.1695L31.2728 28.3352L31.1666 28.3989V28.3919Z" fill="url(#paint0_linear_490_101)"/>
<path d="M31.2728 28.3281L26.4641 23.5194L12.2788 37.7047C12.8029 38.2571 13.6669 38.328 14.6442 37.7756L31.2728 28.3281Z" fill="url(#paint1_linear_490_101)"/>
<path d="M31.2728 18.7107L14.6442 9.26329C13.6669 8.71089 12.8029 8.77463 12.2788 9.33411L26.4641 23.5194L31.2728 18.7107Z" fill="url(#paint2_linear_490_101)"/>
<path d="M52.6181 10.1415C52.1932 9.75903 51.6266 9.51824 51.0034 9.51824C49.6011 9.51824 48.5247 10.6726 48.5247 12.0961C48.5247 13.5196 49.6011 14.6598 51.0034 14.6598C52.2073 14.6598 53.0855 13.9587 53.1421 12.8539H51.2371V12.0678H54.1761C54.1761 14.419 52.9226 15.5309 51.0034 15.5309C49.0841 15.5309 47.6182 13.9941 47.6182 12.0961C47.6182 10.1981 49.0983 8.65424 51.0034 8.65424C51.8886 8.65424 52.6889 8.99417 53.2696 9.53949L52.6181 10.1415Z" fill="white"/>
<path d="M59.3744 8.73214V9.5749H56.3079V11.7137H58.9849V12.5635H56.3079V14.589H59.4665V15.4317H55.4014V8.73214H59.3673H59.3744Z" fill="white"/>
<path d="M65.2384 8.73214V9.58906H63.2059V15.4317H62.2923V9.58906H60.2598V8.73214H65.2384Z" fill="white"/>
<path d="M69.5796 8.73214V15.4317H68.6731V8.73214H69.5796Z" fill="white"/>
<path d="M75.748 8.73214V9.58906H73.7154V15.4317H72.8018V9.58906H70.7693V8.73214H75.748Z" fill="white"/>
<path d="M82.1289 8.65424C84.0481 8.65424 85.5353 10.191 85.5353 12.0961C85.5353 14.0012 84.0481 15.5309 82.1289 15.5309C80.2096 15.5309 78.7437 13.9941 78.7437 12.0961C78.7437 10.1981 80.2238 8.65424 82.1289 8.65424ZM82.1289 14.6527C83.5382 14.6527 84.6217 13.5125 84.6217 12.0961C84.6217 10.6797 83.5453 9.52532 82.1289 9.52532C80.7125 9.52532 79.6502 10.6726 79.6502 12.0961C79.6502 13.5196 80.7266 14.6527 82.1289 14.6527Z" fill="white"/>
<path d="M90.8824 15.4317L87.8301 10.3822V15.4317H86.9236V8.73214H87.8159L90.8399 13.7391V8.73214H91.7464V15.4317H90.8824Z" fill="white"/>
<defs>
<linearGradient id="paint0_linear_490_101" x1="35.8053" y1="23.5194" x2="8.26328" y2="23.5194" gradientUnits="userSpaceOnUse">
<stop stop-color="#FEE000"/>
<stop offset="0.42" stop-color="#FBBC0E"/>
<stop offset="0.78" stop-color="#F9A318"/>
<stop offset="1" stop-color="#F99B1C"/>
</linearGradient>
<linearGradient id="paint1_linear_490_101" x1="28.6596" y1="26.1327" x2="2.76056" y2="52.0317" gradientUnits="userSpaceOnUse">
<stop stop-color="#EF4547"/>
<stop offset="1" stop-color="#C6186D"/>
</linearGradient>
<linearGradient id="paint2_linear_490_101" x1="2.64016" y1="-5.10616" x2="23.7871" y2="16.0408" gradientUnits="userSpaceOnUse">
<stop stop-color="#279E6F"/>
<stop offset="0.04" stop-color="#2B9F6E"/>
<stop offset="0.46" stop-color="#52B16B"/>
<stop offset="0.8" stop-color="#6BBC69"/>
<stop offset="1" stop-color="#74C169"/>
</linearGradient>
</defs>
</svg>
