<svg width="140" height="41" viewBox="0 0 140 41" fill="none" xmlns="http://www.w3.org/2000/svg">
<g clip-path="url(#clip0_488_2)">
<path d="M35.2961 13.8492C32.0822 9.86351 27.2857 7.57679 22.1402 7.57679H21.6532L22.3837 0.281815C22.4161 0.136881 22.3106 0 22.1645 0H20.0382C19.7216 0 19.4295 0.161037 19.2671 0.4348L15.4121 7.57679H9.40628C7.70193 7.57679 6.32222 8.9456 6.32222 10.6365C6.32222 12.3274 7.70193 13.6962 9.40628 13.6962H15.4851L19.259 20.6932C19.4213 20.959 19.7135 21.128 20.03 21.128H22.1564C22.3025 21.128 22.4161 20.9912 22.3756 20.8462L21.6532 13.6962H22.1321C25.3947 13.6962 28.4382 15.1455 30.4753 17.6738C32.5124 20.2021 33.2671 23.4631 32.5529 26.6275C31.4492 31.4908 27.164 34.8967 22.1321 34.8967H6.89033L9.21961 24.1475C10.6805 23.3906 11.6869 21.8769 11.6869 20.1296C11.6869 17.6255 9.64164 15.5964 7.11758 15.5964C4.59352 15.5964 2.54831 17.6255 2.54831 20.1296C2.54831 21.0234 2.81613 21.8527 3.26251 22.5532L0.0648267 37.3042C-0.129956 38.206 0.0972904 39.1481 0.681638 39.8647C1.26599 40.5813 2.15062 41 3.07584 41H22.1402C30.0695 41 36.83 35.6375 38.575 27.9641C39.7112 22.98 38.51 17.8429 35.2961 13.8492ZM7.11758 18.2857C8.13207 18.2857 8.9599 19.107 8.9599 20.1135C8.9599 21.12 8.13207 21.9413 7.11758 21.9413C6.10309 21.9413 5.27526 21.12 5.27526 20.1135C5.27526 19.107 6.10309 18.2857 7.11758 18.2857Z" fill="#489492"/>
<path d="M54.0764 37.0949H48.7929C47.7947 37.0949 46.9912 36.2977 46.9912 35.3073V16.1359C46.9912 15.1455 47.7947 14.3484 48.7929 14.3484H54.0764C57.6961 14.3484 60.6503 17.2712 60.6503 20.8704V30.5809C60.6503 34.172 57.7043 37.0949 54.0764 37.0949ZM50.5947 33.5198H54.0764C55.7077 33.5198 57.0387 32.1993 57.0387 30.5809V20.8704C57.0387 19.252 55.7077 17.9315 54.0764 17.9315H50.5947V33.5198Z" fill="#1A5259"/>
<path d="M75.7135 37.0948H68.3524C65.877 37.0948 63.8643 35.098 63.8643 32.6422V22.6337C63.8643 20.1779 65.877 18.1811 68.3524 18.1811H73.0353C75.5106 18.1811 77.5234 20.1779 77.5234 22.6337V25.0654C77.5234 27.5212 75.5106 29.5181 73.0353 29.5181H67.5164C67.5164 29.5181 67.4921 29.5181 67.4758 29.5181V32.6502C67.4758 33.1333 67.8735 33.5198 68.3524 33.5198H75.7135C76.7118 33.5198 77.5153 34.317 77.5153 35.3073C77.5153 36.2977 76.7118 37.0948 75.7135 37.0948ZM68.3524 21.7561C67.8654 21.7561 67.4758 22.1506 67.4758 22.6257V25.9269C67.4758 25.9269 67.5083 25.9269 67.5164 25.9269H73.0353C73.5222 25.9269 73.9118 25.5324 73.9118 25.0493V22.6176C73.9118 22.1345 73.5141 21.748 73.0353 21.748H68.3524V21.7561Z" fill="#1A5259"/>
<path d="M102.642 37.0949H100.841C100.021 37.0949 99.3066 36.5473 99.0956 35.7663L94.9727 20.4275C94.713 19.4694 95.2892 18.4951 96.255 18.2374C97.2208 17.9878 98.2028 18.5515 98.4626 19.5096L101.741 31.7162L105.02 19.5096C105.28 18.5515 106.262 17.9878 107.228 18.2374C108.194 18.4951 108.762 19.4694 108.51 20.4275L104.387 35.7663C104.176 36.5473 103.462 37.0949 102.642 37.0949Z" fill="#1A5259"/>
<path d="M119.491 37.0948H115.409C112.771 37.0948 110.62 34.9611 110.62 32.3443V22.9316C110.62 20.3148 112.771 18.1811 115.409 18.1811H119.491C122.129 18.1811 124.279 20.3148 124.279 22.9316V32.3443C124.279 34.9611 122.129 37.0948 119.491 37.0948ZM115.409 21.7561C114.759 21.7561 114.224 22.2794 114.224 22.9316V32.3443C114.224 32.9884 114.751 33.5198 115.409 33.5198H119.491C120.14 33.5198 120.676 32.9965 120.676 32.3443V22.9316C120.676 22.2875 120.148 21.7561 119.491 21.7561H115.409Z" fill="#1A5259"/>
<path d="M135.212 37.0948H131.129C128.492 37.0948 126.341 34.9611 126.341 32.3443V22.9316C126.341 20.3148 128.492 18.1811 131.129 18.1811H135.212C137.849 18.1811 140 20.3148 140 22.9316C140 23.922 139.188 24.7192 138.198 24.7192C137.208 24.7192 136.396 23.922 136.396 22.9316C136.396 22.2875 135.869 21.7561 135.22 21.7561H131.137C130.488 21.7561 129.952 22.2794 129.952 22.9316V32.3443C129.952 32.9884 130.48 33.5198 131.137 33.5198H135.22C135.869 33.5198 136.396 32.9965 136.396 32.3443C136.396 31.3539 137.2 30.5567 138.198 30.5567C139.196 30.5567 140 31.3539 140 32.3443C140 34.9611 137.849 37.0948 135.212 37.0948Z" fill="#1A5259"/>
<path d="M82.6284 37.0948C81.6301 37.0948 80.8267 36.2977 80.8267 35.3073V14.6866C80.8267 13.6962 81.6301 12.899 82.6284 12.899C83.6267 12.899 84.4301 13.6962 84.4301 14.6866V35.3073C84.4301 36.2977 83.6267 37.0948 82.6284 37.0948Z" fill="#1A5259"/>
<path d="M90.2331 37.0948C89.2349 37.0948 88.4314 36.2977 88.4314 35.3073V19.9686C88.4314 18.9782 89.2349 18.1811 90.2331 18.1811C91.2314 18.1811 92.0349 18.9782 92.0349 19.9686V35.3073C92.0349 36.2977 91.2314 37.0948 90.2331 37.0948Z" fill="#1A5259"/>
<path d="M91.9862 14.7751C91.9862 15.7414 91.1989 16.5224 90.225 16.5224C89.2511 16.5224 88.4639 15.7414 88.4639 14.7751C88.4639 13.8089 89.2511 13.0279 90.225 13.0279C91.1989 13.0279 91.9862 13.8089 91.9862 14.7751Z" fill="#1A5259"/>
</g>
<defs>
<clipPath id="clip0_488_2">
<rect width="140" height="41" fill="white"/>
</clipPath>
</defs>
</svg>
