<svg width="46" height="24" viewBox="0 0 46 24" fill="none" xmlns="http://www.w3.org/2000/svg">
<rect x="0.199219" width="45.5997" height="23.9998" rx="4" fill="white"/>
<path d="M14.9727 21.6545V20.3539C14.9727 19.8564 14.6696 19.5306 14.1494 19.5306C13.8892 19.5306 13.6064 19.6165 13.4119 19.8993C13.2604 19.6619 13.0432 19.5306 12.7174 19.5306C12.5002 19.5306 12.2831 19.5963 12.1113 19.8337V19.5735H11.6567V21.6545H12.1113V20.5054C12.1113 20.1367 12.3058 19.9625 12.6088 19.9625C12.9119 19.9625 13.0634 20.1569 13.0634 20.5054V21.6545H13.518V20.5054C13.518 20.1367 13.7352 19.9625 14.0155 19.9625C14.3186 19.9625 14.4701 20.1569 14.4701 20.5054V21.6545H14.9727ZM21.7157 19.5735H20.9782V18.9447H20.5236V19.5735H20.112V19.9852H20.5236V20.9398C20.5236 21.4171 20.7181 21.6975 21.2384 21.6975C21.4328 21.6975 21.65 21.6318 21.8015 21.5459L21.6702 21.1545C21.5389 21.2404 21.3874 21.2631 21.2788 21.2631C21.0616 21.2631 20.9757 21.1318 20.9757 20.9171V19.9852H21.7131V19.5735H21.7157ZM25.5746 19.5281C25.3145 19.5281 25.1402 19.6594 25.0316 19.8311V19.571H24.577V21.652H25.0316V20.4802C25.0316 20.1342 25.1831 19.9372 25.466 19.9372C25.5518 19.9372 25.6604 19.9599 25.7488 19.9801L25.8802 19.5458C25.7892 19.5281 25.6604 19.5281 25.5746 19.5281ZM19.7433 19.7453C19.5261 19.5938 19.223 19.5281 18.8972 19.5281C18.377 19.5281 18.031 19.7882 18.031 20.1999C18.031 20.5459 18.2911 20.7428 18.7457 20.806L18.9629 20.8287C19.2003 20.8716 19.3316 20.9373 19.3316 21.0459C19.3316 21.1974 19.1574 21.306 18.8543 21.306C18.5513 21.306 18.3113 21.1974 18.1598 21.0888L17.9426 21.4348C18.18 21.6091 18.5058 21.6949 18.8316 21.6949C19.4377 21.6949 19.7862 21.4121 19.7862 21.0232C19.7862 20.6544 19.5034 20.46 19.0715 20.3943L18.8543 20.3716C18.6599 20.3489 18.5083 20.3059 18.5083 20.1771C18.5083 20.0256 18.6599 19.9397 18.8998 19.9397C19.1599 19.9397 19.42 20.0483 19.5513 20.114L19.7433 19.7453ZM31.8377 19.5281C31.5776 19.5281 31.4033 19.6594 31.2948 19.8311V19.571H30.8402V21.652H31.2948V20.4802C31.2948 20.1342 31.4463 19.9372 31.7291 19.9372C31.815 19.9372 31.9236 19.9599 32.012 19.9801L32.1433 19.5508C32.0549 19.5281 31.9261 19.5281 31.8377 19.5281ZM26.0292 20.614C26.0292 21.2429 26.4635 21.6975 27.1353 21.6975C27.4384 21.6975 27.6556 21.6318 27.8727 21.4601L27.6556 21.0914C27.4813 21.2227 27.3096 21.2858 27.1126 21.2858C26.7439 21.2858 26.4837 21.0257 26.4837 20.614C26.4837 20.2226 26.7439 19.9625 27.1126 19.9423C27.307 19.9423 27.4813 20.0079 27.6556 20.1367L27.8727 19.768C27.6556 19.5937 27.4384 19.5306 27.1353 19.5306C26.4635 19.5281 26.0292 19.9852 26.0292 20.614ZM30.2341 20.614V19.5735H29.7795V19.8337C29.6279 19.6392 29.4108 19.5306 29.1279 19.5306C28.542 19.5306 28.0874 19.9852 28.0874 20.614C28.0874 21.2429 28.542 21.6975 29.1279 21.6975C29.431 21.6975 29.6482 21.5889 29.7795 21.3944V21.6545H30.2341V20.614ZM28.5647 20.614C28.5647 20.2453 28.8021 19.9423 29.1936 19.9423C29.5623 19.9423 29.8224 20.2251 29.8224 20.614C29.8224 20.9828 29.5623 21.2858 29.1936 21.2858C28.8046 21.2631 28.5647 20.9802 28.5647 20.614ZM23.1249 19.5281C22.5188 19.5281 22.0844 19.9625 22.0844 20.6115C22.0844 21.2631 22.5188 21.6949 23.1476 21.6949C23.4507 21.6949 23.7537 21.6091 23.9936 21.4121L23.7764 21.0863C23.6022 21.2176 23.385 21.3035 23.1703 21.3035C22.8875 21.3035 22.6072 21.1722 22.5415 20.806H24.0795C24.0795 20.7403 24.0795 20.6974 24.0795 20.6317C24.0997 19.9625 23.7083 19.5281 23.1249 19.5281ZM23.1249 19.9195C23.4077 19.9195 23.6022 20.0938 23.6451 20.4171H22.5617C22.6046 20.1367 22.7991 19.9195 23.1249 19.9195ZM34.4188 20.614V18.7502H33.9642V19.8337C33.8126 19.6392 33.5955 19.5306 33.3126 19.5306C32.7267 19.5306 32.2721 19.9852 32.2721 20.614C32.2721 21.2429 32.7267 21.6975 33.3126 21.6975C33.6157 21.6975 33.8328 21.5889 33.9642 21.3944V21.6545H34.4188V20.614ZM32.7494 20.614C32.7494 20.2453 32.9868 19.9423 33.3783 19.9423C33.747 19.9423 34.0071 20.2251 34.0071 20.614C34.0071 20.9828 33.747 21.2858 33.3783 21.2858C32.9868 21.2631 32.7494 20.9802 32.7494 20.614ZM17.531 20.614V19.5735H17.0764V19.8337C16.9249 19.6392 16.7077 19.5306 16.4248 19.5306C15.8389 19.5306 15.3843 19.9852 15.3843 20.614C15.3843 21.2429 15.8389 21.6975 16.4248 21.6975C16.7279 21.6975 16.9451 21.5889 17.0764 21.3944V21.6545H17.531V20.614ZM15.8414 20.614C15.8414 20.2453 16.0788 19.9423 16.4703 19.9423C16.839 19.9423 17.0991 20.2251 17.0991 20.614C17.0991 20.9828 16.839 21.2858 16.4703 21.2858C16.0788 21.2631 15.8414 20.9802 15.8414 20.614Z" fill="black"/>
<path d="M26.4207 3.76929H19.5918V16.038H26.4207V3.76929Z" fill="#FF5A00"/>
<path d="M20.0462 9.90378C20.0462 7.41115 21.218 5.19884 23.0161 3.76943C21.6928 2.72894 20.0235 2.1001 18.2026 2.1001C13.8891 2.1001 10.3989 5.59029 10.3989 9.90378C10.3989 14.2173 13.8891 17.7075 18.2026 17.7075C20.0235 17.7075 21.6928 17.0786 23.0161 16.0381C21.2155 14.6289 20.0462 12.3964 20.0462 9.90378Z" fill="#EB001B"/>
<path d="M35.6336 9.90378C35.6336 14.2173 32.1434 17.7075 27.8299 17.7075C26.009 17.7075 24.3397 17.0786 23.0164 16.0381C24.8372 14.6062 25.9863 12.3964 25.9863 9.90378C25.9863 7.41115 24.8145 5.19884 23.0164 3.76943C24.3372 2.72894 26.0065 2.1001 27.8274 2.1001C32.1434 2.1001 35.6336 5.61302 35.6336 9.90378Z" fill="#F79E1B"/>
</svg>
