<svg width="46" height="24" viewBox="0 0 46 24" fill="none" xmlns="http://www.w3.org/2000/svg">
<rect width="45.5997" height="23.9998" rx="4" fill="white"/>
<path d="M18.598 9.896H16.778C16.6534 9.896 16.5475 9.98648 16.5281 10.1094L15.7919 14.7765C15.7773 14.8686 15.8486 14.9516 15.942 14.9516H16.8109C16.9355 14.9516 17.0414 14.8611 17.0608 14.7379L17.2594 13.4791C17.2785 13.3559 17.3847 13.2654 17.509 13.2654H18.0852C19.2841 13.2654 19.976 12.6853 20.1567 11.5356C20.2381 11.0326 20.1602 10.6374 19.9246 10.3607C19.666 10.0567 19.2072 9.896 18.598 9.896ZM18.808 11.6005C18.7084 12.2536 18.2094 12.2536 17.727 12.2536H17.4523L17.645 11.034C17.6564 10.9602 17.7203 10.9059 17.7948 10.9059H17.9207C18.2494 10.9059 18.5594 10.9059 18.7196 11.0933C18.8152 11.2051 18.8444 11.3711 18.808 11.6005Z" fill="#253B80"/>
<path d="M24.0383 11.5798H23.1667C23.0925 11.5798 23.0284 11.6341 23.0169 11.7078L22.9783 11.9515L22.9174 11.8632C22.7287 11.5894 22.308 11.4978 21.888 11.4978C20.9249 11.4978 20.1023 12.2273 19.9421 13.2505C19.8588 13.7609 19.9772 14.249 20.2668 14.5894C20.5324 14.9024 20.9124 15.0328 21.3645 15.0328C22.1406 15.0328 22.5709 14.5338 22.5709 14.5338L22.532 14.776C22.5174 14.8686 22.5887 14.9516 22.6816 14.9516H23.4667C23.5915 14.9516 23.6969 14.8611 23.7166 14.7379L24.1876 11.7549C24.2025 11.6631 24.1315 11.5798 24.0383 11.5798ZM22.8234 13.2761C22.7393 13.774 22.3442 14.1082 21.8401 14.1082C21.587 14.1082 21.3848 14.0271 21.2549 13.8733C21.1261 13.7205 21.0771 13.5031 21.1181 13.2609C21.1966 12.7672 21.5985 12.4221 22.0948 12.4221C22.3423 12.4221 22.5435 12.5043 22.676 12.6594C22.8088 12.8162 22.8615 13.035 22.8234 13.2761Z" fill="#253B80"/>
<path d="M28.6801 11.5796H27.8043C27.7207 11.5796 27.6422 11.6211 27.5949 11.6906L26.3869 13.4699L25.8749 11.76C25.8427 11.653 25.7439 11.5796 25.6322 11.5796H24.7715C24.6669 11.5796 24.5943 11.6818 24.6275 11.7802L25.5922 14.6113L24.6853 15.8916C24.614 15.9925 24.6858 16.1312 24.809 16.1312H25.6838C25.7668 16.1312 25.8445 16.0907 25.8916 16.0226L28.8047 11.8178C28.8744 11.7172 28.8028 11.5796 28.6801 11.5796Z" fill="#253B80"/>
<path d="M31.5799 9.896H29.7596C29.6353 9.896 29.5294 9.98648 29.51 10.1094L28.7739 14.7765C28.7592 14.8686 28.8306 14.9516 28.9234 14.9516H29.8576C29.9443 14.9516 30.0186 14.8883 30.0321 14.802L30.241 13.4791C30.2602 13.3559 30.3664 13.2654 30.4907 13.2654H31.0666C32.2657 13.2654 32.9574 12.6853 33.1384 11.5356C33.2201 11.0326 33.1416 10.6374 32.906 10.3607C32.6476 10.0567 32.1891 9.896 31.5799 9.896ZM31.7899 11.6005C31.6906 12.2536 31.1916 12.2536 30.7089 12.2536H30.4345L30.6275 11.034C30.6389 10.9602 30.7022 10.9059 30.777 10.9059H30.9029C31.2313 10.9059 31.5416 10.9059 31.7018 11.0933C31.7974 11.2051 31.8264 11.3711 31.7899 11.6005Z" fill="#179BD7"/>
<path d="M37.0201 11.5798H36.1491C36.0743 11.5798 36.0107 11.6341 35.9995 11.7078L35.9609 11.9515L35.8997 11.8632C35.711 11.5894 35.2905 11.4978 34.8706 11.4978C33.9075 11.4978 33.0851 12.2273 32.9249 13.2505C32.8419 13.7609 32.9598 14.249 33.2493 14.5894C33.5155 14.9024 33.895 15.0328 34.3471 15.0328C35.1231 15.0328 35.5535 14.5338 35.5535 14.5338L35.5146 14.776C35.5 14.8686 35.5713 14.9516 35.6647 14.9516H36.4495C36.5738 14.9516 36.6797 14.8611 36.6991 14.7379L37.1704 11.7549C37.1848 11.6631 37.1135 11.5798 37.0201 11.5798ZM35.8052 13.2761C35.7217 13.774 35.3259 14.1082 34.8219 14.1082C34.5693 14.1082 34.3665 14.0271 34.2367 13.8733C34.1079 13.7205 34.0594 13.5031 34.0999 13.2609C34.1789 12.7672 34.5802 12.4221 35.0766 12.4221C35.3241 12.4221 35.5253 12.5043 35.6578 12.6594C35.7911 12.8162 35.8438 13.035 35.8052 13.2761Z" fill="#179BD7"/>
<path d="M38.0475 10.0243L37.3005 14.7768C37.2859 14.8688 37.3572 14.9519 37.4501 14.9519H38.2011C38.3259 14.9519 38.4318 14.8614 38.451 14.7382L39.1876 10.0714C39.2022 9.97929 39.1309 9.896 39.038 9.896H38.1971C38.1228 9.89626 38.059 9.95055 38.0475 10.0243Z" fill="#179BD7"/>
<path d="M8.23359 15.8587L8.37278 14.9746L8.06274 14.9675H6.58228L7.61112 8.44388C7.61432 8.42419 7.62469 8.40582 7.63986 8.39278C7.65503 8.37974 7.67446 8.37256 7.69469 8.37256H10.191C11.0197 8.37256 11.5916 8.54501 11.8902 8.88539C12.0302 9.04506 12.1193 9.21192 12.1624 9.39555C12.2077 9.58823 12.2085 9.81843 12.1643 10.0992L12.1611 10.1197V10.2996L12.3011 10.3789C12.419 10.4414 12.5126 10.513 12.5845 10.595C12.7043 10.7315 12.7817 10.905 12.8144 11.1107C12.8482 11.3223 12.8371 11.5741 12.7817 11.8591C12.7178 12.187 12.6146 12.4725 12.4751 12.7062C12.3469 12.9215 12.1835 13.1 11.9894 13.2384C11.8042 13.3699 11.5841 13.4697 11.3353 13.5336C11.0942 13.5964 10.8193 13.628 10.5178 13.628H10.3235C10.1846 13.628 10.0496 13.6781 9.94373 13.7678C9.83754 13.8593 9.76728 13.9844 9.74573 14.1212L9.73109 14.2007L9.48519 15.7589L9.47401 15.8161C9.47108 15.8342 9.46603 15.8433 9.45858 15.8494C9.45192 15.855 9.44234 15.8587 9.43303 15.8587H8.23359Z" fill="#253B80"/>
<path d="M12.4336 10.1404C12.4261 10.188 12.4176 10.2367 12.408 10.2868C12.0788 11.9769 10.9526 12.5608 9.51418 12.5608H8.7818C8.60589 12.5608 8.45765 12.6885 8.43024 12.8621L8.05527 15.2402L7.94908 15.9143C7.93125 16.0282 8.01908 16.1309 8.13404 16.1309H9.43301C9.58683 16.1309 9.7175 16.0191 9.74172 15.8674L9.75449 15.8014L9.99906 14.2494L10.0148 14.1642C10.0387 14.012 10.1696 13.9002 10.3235 13.9002H10.5177C11.7763 13.9002 12.7615 13.3893 13.0494 11.9107C13.1697 11.293 13.1074 10.7772 12.7891 10.4145C12.6928 10.3051 12.5733 10.2144 12.4336 10.1404Z" fill="#179BD7"/>
<path d="M12.0894 10.0029C12.0391 9.98829 11.9872 9.97498 11.934 9.96301C11.8805 9.9513 11.8257 9.94092 11.7692 9.93187C11.5718 9.89993 11.3554 9.88477 11.1236 9.88477H9.16706C9.11889 9.88477 9.07312 9.89568 9.03213 9.91537C8.94192 9.95875 8.87485 10.0442 8.85862 10.1488L8.4424 12.785L8.43042 12.8619C8.45783 12.6884 8.60606 12.5607 8.78197 12.5607H9.51436C10.9528 12.5607 12.079 11.9765 12.4082 10.2866C12.4181 10.2366 12.4263 10.1879 12.4338 10.1402C12.3505 10.0961 12.2603 10.0583 12.1631 10.0261C12.1392 10.0181 12.1144 10.0104 12.0894 10.0029Z" fill="#222D65"/>
<path d="M8.85859 10.149C8.87482 10.0444 8.94189 9.95899 9.03211 9.91588C9.07336 9.89619 9.11886 9.88528 9.16703 9.88528H11.1236C11.3554 9.88528 11.5718 9.90045 11.7692 9.93238C11.8256 9.94143 11.8805 9.95181 11.934 9.96352C11.9872 9.97549 12.0391 9.9888 12.0894 10.0034C12.1144 10.0109 12.1391 10.0186 12.1634 10.0263C12.2605 10.0585 12.3507 10.0966 12.434 10.1405C12.5319 9.51589 12.4332 9.09062 12.0955 8.70554C11.7232 8.2816 11.0512 8.1001 10.1914 8.1001H7.69508C7.51944 8.1001 7.36961 8.22784 7.34247 8.40162L6.30271 14.9923C6.28222 15.1227 6.38281 15.2403 6.51428 15.2403H8.05542L8.44237 12.7853L8.85859 10.149Z" fill="#253B80"/>
</svg>
