<svg width="47" height="24" viewBox="0 0 47 24" fill="none" xmlns="http://www.w3.org/2000/svg">
<rect x="0.599365" width="45.5997" height="23.9998" rx="4" fill="white"/>
<path d="M21.2 17.1266H18.5266L20.1987 6.7876H22.8719L21.2 17.1266Z" fill="#00579F"/>
<path d="M30.8912 7.04027C30.3639 6.83108 29.5275 6.6001 28.4934 6.6001C25.8533 6.6001 23.9943 8.0079 23.9829 10.0206C23.9609 11.5056 25.3139 12.3304 26.3258 12.8255C27.3601 13.3315 27.7117 13.6617 27.7117 14.1127C27.7012 14.8054 26.8759 15.1247 26.1063 15.1247C25.0389 15.1247 24.467 14.96 23.5979 14.5747L23.2459 14.4095L22.8718 16.7304C23.4988 17.016 24.654 17.2695 25.8533 17.2806C28.6584 17.2806 30.4846 15.8946 30.5062 13.7498C30.5169 12.5728 29.8025 11.6709 28.2622 10.934C27.3272 10.4609 26.7546 10.142 26.7546 9.65793C26.7656 9.2179 27.2389 8.7672 28.2944 8.7672C29.1635 8.74512 29.8021 8.95403 30.2858 9.16308L30.5276 9.27287L30.8912 7.04027Z" fill="#00579F"/>
<path d="M34.4442 13.4639C34.6644 12.8699 35.5115 10.5711 35.5115 10.5711C35.5004 10.5932 35.7313 9.96618 35.8633 9.58126L36.0501 10.4721C36.0501 10.4721 36.5564 12.947 36.6663 13.4639C36.2485 13.4639 34.9723 13.4639 34.4442 13.4639ZM37.7441 6.7876H35.6763C35.0386 6.7876 34.5542 6.97443 34.279 7.64543L30.3081 17.1265H33.1132C33.1132 17.1265 33.575 15.8504 33.6742 15.5756C33.982 15.5756 36.7107 15.5756 37.1066 15.5756C37.1834 15.9386 37.4256 17.1265 37.4256 17.1265H39.9009L37.7441 6.7876Z" fill="#00579F"/>
<path d="M16.2936 6.7876L13.6755 13.8378L13.3894 12.408C12.9054 10.7581 11.3874 8.96552 9.69336 8.0742L12.0914 17.1157H14.9184L19.1205 6.7876H16.2936Z" fill="#00579F"/>
<path d="M11.2446 6.7876H6.94342L6.89941 6.9965C10.2546 7.85448 12.4767 9.92261 13.3896 12.4084L12.4546 7.65669C12.3006 6.99636 11.8276 6.80938 11.2446 6.7876Z" fill="#FAA61A"/>
</svg>
